<svg xmlns="http://www.w3.org/2000/svg" width="190.884" height="118.769" viewBox="0 0 190.884 118.769">
  <g id="Group_30" data-name="Group 30" transform="translate(-1610.505 -4872.342)">
    <path id="Icon_feather-phone-call" data-name="Icon feather-phone-call" d="M42.464,13.649a15.186,15.186,0,0,1,12,12M42.464,1.5A27.335,27.335,0,0,1,66.61,25.616M63.573,49.853v9.112a6.074,6.074,0,0,1-6.621,6.074A60.107,60.107,0,0,1,30.74,55.715,59.226,59.226,0,0,1,12.517,37.491,60.107,60.107,0,0,1,3.192,11.158,6.074,6.074,0,0,1,9.237,4.537h9.112a6.074,6.074,0,0,1,6.074,5.224A39,39,0,0,0,26.549,18.3,6.074,6.074,0,0,1,25.182,24.7l-3.857,3.857A48.6,48.6,0,0,0,39.548,46.785l3.857-3.857a6.074,6.074,0,0,1,6.409-1.367,39,39,0,0,0,8.535,2.126A6.074,6.074,0,0,1,63.573,49.853Z" transform="translate(1608.84 4872.499)" fill="none" stroke="#000" stroke-linecap="round" stroke-linejoin="round" stroke-width="3"/>
    <path id="Icon_metro-location" data-name="Icon metro-location" d="M31.549,1.928A23.2,23.2,0,0,0,8.355,25.123c0,23.195,23.195,51.028,23.195,51.028S54.744,48.317,54.744,25.123A23.2,23.2,0,0,0,31.549,1.928Zm0,37.4A14.207,14.207,0,1,1,45.756,25.123,14.207,14.207,0,0,1,31.549,39.329ZM22.562,25.123a8.988,8.988,0,1,1,8.988,8.988A8.988,8.988,0,0,1,22.562,25.123Z" transform="translate(1746.645 4914.96)"/>
  </g>
</svg>
